<?xml version="1.0" standalone="no"?>
<!DOCTYPE svg PUBLIC "-//W3C//DTD SVG 20010904//EN"
 "http://www.w3.org/TR/2001/REC-SVG-20010904/DTD/svg10.dtd">
<svg version="1.0" xmlns="http://www.w3.org/2000/svg"
 width="184.000000pt" height="184.000000pt" viewBox="0 0 184.000000 184.000000"
 preserveAspectRatio="xMidYMid meet">
<metadata>
Created by potrace 1.14, written by Peter Selinger 2001-2017
</metadata>
<g transform="translate(0.000000,184.000000) scale(0.100000,-0.100000)"
fill="#000000" stroke="none">
<path d="M0 920 l0 -920 920 0 920 0 0 920 0 920 -920 0 -920 0 0 -920z m728
517 c4 -20 -25 -34 -40 -19 -15 15 -1 44 19 40 10 -2 19 -11 21 -21z m460 0
c4 -20 -25 -34 -40 -19 -15 15 -1 44 19 40 10 -2 19 -11 21 -21z m-224 -23 c7
-19 -10 -44 -29 -44 -19 0 -36 25 -29 44 3 9 16 16 29 16 13 0 26 -7 29 -16z
m-486 -58 c-2 -13 -10 -21 -23 -21 -23 0 -33 34 -14 45 20 13 40 -1 37 -24z
m352 -116 c-9 -14 -25 -42 -35 -63 -25 -48 -41 -62 -51 -46 -4 7 -3 9 4 5 6
-3 13 -2 17 3 3 6 -5 8 -17 6 -16 -3 -37 8 -70 38 l-47 42 40 84 39 84 68 -64
c67 -63 67 -64 52 -89z m370 68 c44 -95 45 -91 -41 -153 -44 -31 -48 -32 -62
-17 -15 18 -67 109 -67 118 0 7 121 134 127 134 2 0 22 -37 43 -82z m238 48
c-2 -13 -10 -21 -23 -21 -23 0 -33 34 -14 45 20 13 40 -1 37 -24z m-427 -138
c40 -73 76 -138 81 -145 7 -8 47 19 141 94 73 59 137 110 143 115 6 4 -14 -75
-45 -176 l-56 -183 -166 -7 c-92 -4 -245 -4 -341 0 l-174 7 -49 166 c-27 91
-51 172 -53 180 -8 22 22 1 156 -109 68 -56 125 -100 126 -98 2 2 38 67 80
146 43 78 79 142 81 142 2 0 36 -60 76 -132z m255 -370 c-3 -7 -7 -25 -10 -39
l-6 -26 -154 -7 c-84 -4 -226 -4 -314 0 l-160 7 -10 38 -10 39 334 0 c262 0
333 -3 330 -12z m-456 -258 c0 -72 -3 -100 -12 -100 -7 0 27 -39 75 -88 l87
-87 0 -75 0 -75 -190 190 c-104 104 -190 193 -190 197 0 5 29 8 65 8 51 0 65
3 65 15 0 12 -16 15 -80 15 l-80 0 0 -135 0 -135 -50 0 -50 0 0 135 c0 134 0
135 -23 135 -14 0 -41 19 -72 50 l-49 50 252 0 252 0 0 -100z m100 -30 l0
-130 80 0 80 0 0 130 0 130 50 0 50 0 0 -185 0 -185 -97 0 -98 0 -77 77 -78
78 0 107 0 108 45 0 45 0 0 -130z m620 80 l0 -50 -130 0 -130 0 0 -80 0 -80
80 0 c64 0 80 3 80 15 0 12 -14 15 -65 15 l-65 0 0 50 0 50 115 0 115 0 0
-120 0 -120 -175 0 -175 0 0 185 0 185 175 0 175 0 0 -50z m-1090 -130 c0 -41
-3 -50 -18 -50 -10 0 -40 23 -67 50 l-49 50 67 0 67 0 0 -50z m168 -12 l36
-38 -42 0 -42 0 1 53 c0 28 3 45 6 37 3 -8 22 -32 41 -52z m452 12 l0 -50 -70
0 -70 0 0 50 0 50 70 0 70 0 0 -50z m227 -27 c-2 -16 -4 -3 -4 27 0 30 2 43 4
28 2 -16 2 -40 0 -55z"/>
<path d="M1106 1138 c3 -5 10 -6 15 -3 13 9 11 12 -6 12 -8 0 -12 -4 -9 -9z"/>
</g>
</svg>
